<svg width="24" height="21" viewBox="0 0 24 21" fill="none" xmlns="http://www.w3.org/2000/svg">
<path d="M16.792 2.34089C18.1064 2.41356 19.3389 3.00279 20.2207 3.9802C21.1026 4.9576 21.5624 6.24394 21.5 7.55889C21.5 10.6309 18.848 12.5179 16.303 14.7809C13.791 17.0239 12.438 18.2499 12 18.5329C11.523 18.2239 9.857 16.7099 7.697 14.7809C5.141 12.5089 2.5 10.6039 2.5 7.55889C2.43756 6.24394 2.89739 4.9576 3.77926 3.9802C4.66113 3.00279 5.89357 2.41356 7.208 2.34089C7.93614 2.31882 8.65756 2.48607 9.30171 2.82629C9.94586 3.16651 10.4907 3.66805 10.883 4.28189C11.723 5.45689 11.863 6.04489 12.003 6.04489C12.143 6.04489 12.281 5.45689 13.113 4.27889C13.5031 3.66221 14.0481 3.15868 14.6937 2.81861C15.3393 2.47853 16.0628 2.3138 16.792 2.34089ZM16.792 0.340893C15.8839 0.311819 14.981 0.487976 14.1504 0.856244C13.3199 1.22451 12.5831 1.7754 11.995 2.46789C11.4074 1.77742 10.6721 1.2278 9.84354 0.859645C9.01498 0.491489 8.11428 0.314206 7.208 0.340893C5.36287 0.413045 3.62138 1.21288 2.36434 2.56549C1.1073 3.9181 0.436992 5.71343 0.499998 7.55889C0.499998 11.1689 3.05 13.3859 5.515 15.5289C5.798 15.7749 6.084 16.0229 6.368 16.2759L7.395 17.1939C8.51504 18.2597 9.68926 19.267 10.913 20.2119C11.2368 20.4215 11.6143 20.5331 12 20.5331C12.3857 20.5331 12.7632 20.4215 13.087 20.2119C14.3497 19.2382 15.56 18.1984 16.713 17.0969L17.635 16.2729C17.928 16.0129 18.225 15.7539 18.52 15.4989C20.854 13.4739 23.5 11.1789 23.5 7.55889C23.563 5.71343 22.8927 3.9181 21.6357 2.56549C20.3786 1.21288 18.6371 0.413045 16.792 0.340893Z" fill="black"/>
</svg>
