<svg width="106" height="31" viewBox="0 0 106 31" fill="none" xmlns="http://www.w3.org/2000/svg">
<path d="M5.6347 0.984613C3.47333 1.88933 1.09726 4.44528 0.34682 7.65355C-0.603554 11.7185 3.35139 13.4375 3.67578 12.8739C4.05758 12.2116 2.9671 11.9877 2.74263 9.87855C2.45253 7.15445 3.71895 4.11059 5.31279 2.77503C5.60906 2.52689 5.59497 2.87225 5.59497 3.51107C5.59497 4.65341 5.53185 14.9083 5.53185 17.0486C5.53185 19.9445 5.41223 20.859 5.19741 21.7627C4.97974 22.6784 4.62981 23.2972 4.89497 23.5355C5.19122 23.8021 6.45612 23.168 7.18838 22.1459C8.06648 20.9202 8.37385 19.4481 8.42904 17.8495C8.49569 15.9224 8.49285 12.8645 8.49569 11.1203C8.49835 9.52063 8.52264 4.83637 8.46765 2.02037C8.45417 1.32967 6.5386 0.605012 5.63459 0.983773L5.6347 0.984613ZM82.3849 14.5376C82.3152 16.0431 81.982 17.2199 81.5684 18.0499C80.7676 19.6569 79.1061 20.1559 78.4006 17.8458C78.0162 16.5866 77.9982 14.4836 78.2746 12.7265C78.556 10.9364 79.3416 9.58449 80.6425 9.70641C81.9256 9.82693 82.5262 11.4803 82.3849 14.5375V14.5376ZM60.7535 23.8784C60.7361 26.3799 60.3424 28.5733 59.4981 29.2103C58.3007 30.1136 56.6912 29.436 57.0245 27.6106C57.3193 25.9953 58.7139 24.3456 60.7569 22.33C60.7569 22.33 60.7612 22.7897 60.7536 23.8784H60.7535ZM60.4265 14.523C60.3532 15.8942 59.9978 17.2718 59.6099 18.0501C58.8094 19.6571 57.1357 20.1594 56.4422 17.846C55.968 16.2654 56.0815 14.2197 56.3162 12.9307C56.6206 11.2583 57.3586 9.70677 58.6841 9.70677C59.9727 9.70677 60.6081 11.1205 60.4265 14.5231V14.523ZM47.8954 14.502C47.8168 15.9543 47.5335 17.1684 47.0788 18.0501C46.2562 19.646 44.6288 20.1521 43.9111 17.846C43.3937 16.1831 43.5698 13.9157 43.785 12.6909C44.1045 10.8733 44.9043 9.58467 46.153 9.70677C47.4356 9.83208 48.0591 11.4805 47.8954 14.5021V14.502ZM105.323 16.1984C105.009 16.1984 104.866 16.5216 104.748 17.0656C104.337 18.9571 103.905 19.3842 103.349 19.3842C102.727 19.3842 102.168 18.4476 102.025 16.5727C101.912 15.0984 101.93 12.3841 102.074 9.68421C102.104 9.12948 101.951 8.58061 100.463 8.04009C99.8228 7.8076 98.8921 7.46527 98.4288 8.58381C97.1195 11.7439 96.6072 14.2528 96.4867 15.272C96.4805 15.3247 96.4158 15.3355 96.4044 15.2122C96.3277 14.3959 96.156 12.9126 96.1346 9.79603C96.1305 9.18796 96.0017 8.67037 95.3305 8.24663C94.895 7.97167 93.5726 7.48536 93.0965 8.06391C92.6839 8.53707 92.2061 9.81041 91.7097 11.3198C91.3062 12.5466 91.0252 13.3765 91.0252 13.3765C91.0252 13.3765 91.0305 10.0664 91.0353 8.81079C91.0375 8.33711 90.7126 8.17927 90.6146 8.15065C90.1736 8.02267 89.3048 7.80885 88.936 7.80885C88.481 7.80885 88.3696 8.0632 88.3696 8.4338C88.3696 8.48232 88.2977 12.7919 88.2977 15.8053C88.2977 15.9362 88.2977 16.0791 88.2991 16.2308C88.0474 17.6158 87.2312 19.4959 86.3435 19.4959C85.4548 19.4959 85.0355 18.7099 85.0355 15.1174C85.0355 13.0216 85.0984 12.1103 85.1294 10.5945C85.1473 9.72144 85.182 9.05099 85.18 8.89884C85.1735 8.43227 84.3667 8.19711 83.9913 8.1102C83.6141 8.02256 83.2864 7.98861 83.0304 8.00319C82.6682 8.02363 82.4119 8.26128 82.4119 8.58815C82.4119 8.7634 82.4139 9.09667 82.4139 9.09667C81.9473 8.36348 81.1969 7.85317 80.6976 7.70529C79.3528 7.30591 77.9495 7.65979 76.891 9.14093C76.0498 10.3178 75.5427 11.6507 75.343 13.5657C75.1971 14.9657 75.2448 16.3854 75.5041 17.5861C75.1907 18.9409 74.609 19.4959 73.9719 19.4959C73.0471 19.4959 72.3767 17.9864 72.4545 15.3758C72.5059 13.6587 72.8495 12.4537 73.2251 10.7104C73.3852 9.96725 73.2551 9.57817 72.9287 9.20527C72.6294 8.86329 71.9917 8.68857 71.0749 8.90347C70.4219 9.05668 69.4882 9.22144 68.6339 9.348C68.6339 9.348 68.6855 9.14235 68.7278 8.77976C68.95 6.87825 66.8837 7.03253 66.2244 7.63988C65.8309 8.00248 65.5631 8.43013 65.4614 9.19905C65.3002 10.4193 66.2954 10.9948 66.2954 10.9948C65.9688 12.4894 65.1685 14.4419 64.3421 15.8536C63.8996 16.6099 63.561 17.1704 63.1239 17.7661C63.1223 17.5443 63.1211 17.3225 63.1203 17.1017C63.1103 13.9593 63.1521 11.4862 63.1706 10.5948C63.1885 9.72175 63.2235 9.06907 63.2216 8.91692C63.2167 8.57565 63.0174 8.44679 62.6029 8.28361C62.2364 8.13929 61.803 8.0394 61.3535 8.00456C60.7861 7.96031 60.4443 8.26123 60.4532 8.61707C60.455 8.68425 60.455 9.0968 60.455 9.0968C59.9884 8.3636 59.2379 7.85331 58.7387 7.70541C57.3938 7.3062 55.9906 7.66009 54.9321 9.14105C54.091 10.3179 53.5402 11.9693 53.3841 13.5512C53.2387 15.0256 53.2656 16.2785 53.4638 17.334C53.2499 18.3908 52.6351 19.496 51.94 19.496C51.0513 19.496 50.5456 18.71 50.5456 15.1175C50.5456 13.0217 50.6085 12.1104 50.6394 10.5948C50.6574 9.72175 50.692 9.05112 50.6901 8.89915C50.6835 8.43257 49.8767 8.19741 49.5013 8.11032C49.1085 8.01949 48.7694 7.98608 48.509 8.00527C48.1654 8.03087 47.9238 8.33855 47.9238 8.56801V9.0968C47.4573 8.3636 46.7068 7.85331 46.2076 7.70541C44.8628 7.3062 43.4673 7.66579 42.401 9.14105C41.7057 10.103 41.1428 11.1695 40.853 13.5303C40.7693 14.2125 40.7323 14.8513 40.7371 15.4485C40.4599 17.1442 39.2352 19.0986 38.2334 19.0986C37.6472 19.0986 37.089 17.9616 37.089 15.5384C37.089 12.3106 37.2887 7.71484 37.3225 7.27191C37.3225 7.27191 38.5882 7.2504 38.8333 7.24755C39.4647 7.24061 40.0365 7.25555 40.8774 7.21253C41.2992 7.19103 41.7055 5.67736 41.2702 5.49003C41.0729 5.40524 39.6785 5.33095 39.1257 5.31921C38.6609 5.30868 37.367 5.21292 37.367 5.21292C37.367 5.21292 37.483 2.16248 37.51 1.84024C37.533 1.57167 37.1855 1.43339 36.9862 1.34948C36.5017 1.14455 36.0682 1.04643 35.5543 0.940493C34.8444 0.794039 34.5223 0.937293 34.4594 1.53647C34.3647 2.44581 34.3156 5.10929 34.3156 5.10929C33.7947 5.10929 32.0151 5.00745 31.4939 5.00745C31.0098 5.00745 30.4872 7.08972 31.1566 7.11531C31.9268 7.14517 33.2689 7.17095 34.1587 7.19779C34.1587 7.19779 34.119 11.8692 34.119 13.3115C34.119 13.4649 34.1204 13.6127 34.1206 13.756C33.631 16.3084 31.9061 17.6872 31.9061 17.6872C32.2765 15.9986 31.5199 14.7306 30.157 13.6572C29.6548 13.2617 28.6635 12.5128 27.5544 11.6922C27.5544 11.6922 28.1968 11.0591 28.7665 9.78541C29.1701 8.88319 29.1875 7.85067 28.1968 7.62299C26.5598 7.24652 25.21 8.44877 24.8074 9.73227C24.4955 10.7266 24.6618 11.4644 25.2729 12.2308C25.3175 12.2868 25.3659 12.344 25.4158 12.4016C25.0463 13.1139 24.5387 14.0728 24.1087 14.8164C22.9153 16.8811 22.0138 18.5142 21.3325 18.5142C20.7879 18.5142 20.7952 16.8562 20.7952 15.3038C20.7952 13.9655 20.894 11.9535 20.9729 9.87037C20.9991 9.18144 20.6546 8.78897 20.0771 8.43349C19.7263 8.21753 18.9774 7.79291 18.5437 7.79291C17.8946 7.79291 16.0217 7.88124 14.2521 13.0001C14.0291 13.6453 13.591 14.8209 13.591 14.8209L13.6287 8.66527C13.6287 8.52095 13.5518 8.38141 13.3758 8.28596C13.0776 8.12404 12.2812 7.79291 11.573 7.79291C11.2355 7.79291 11.0671 7.94985 11.0671 8.26268L11.0054 17.8932C11.0054 18.6249 11.0244 19.4786 11.0968 19.8519C11.1689 20.2257 11.2857 20.5299 11.4303 20.7108C11.5747 20.8914 11.7417 21.0291 12.0172 21.086C12.2735 21.1388 13.6772 21.319 13.7502 20.7826C13.8376 20.1397 13.8409 19.4444 14.578 16.8511C15.7255 12.8136 17.2216 10.8437 17.9249 10.1441C18.0479 10.0218 18.1883 10.0145 18.1815 10.2147C18.1515 11.0998 18.0459 13.3117 17.9749 15.1908C17.7843 20.2195 18.6991 21.1516 20.0065 21.1516C21.0066 21.1516 22.4165 20.1578 23.9278 17.6422C24.8701 16.0745 25.7849 14.5374 26.4422 13.4295C26.9003 13.8535 27.4143 14.3099 27.928 14.7974C29.1217 15.9304 29.5136 17.007 29.2536 18.0283C29.0547 18.809 28.3057 19.6137 26.9726 18.8316C26.584 18.6034 26.4182 18.4272 26.0275 18.1699C25.8176 18.0317 25.4971 17.9904 25.305 18.1352C24.8059 18.5115 24.5204 18.9902 24.3575 19.5828C24.1989 20.1594 24.7764 20.4642 25.375 20.7308C25.8905 20.9603 26.9984 21.1682 27.7049 21.1919C30.4578 21.284 32.6631 19.8627 34.1982 16.1966C34.473 19.3628 35.6426 21.1544 37.6745 21.1544C39.033 21.1544 40.3951 19.3984 40.9907 17.671C41.1617 18.3752 41.4148 18.9875 41.7417 19.5053C43.3074 21.9861 46.3449 21.4521 47.8706 19.3456C48.3424 18.6946 48.4142 18.4607 48.4142 18.4607C48.6367 20.4498 50.2385 21.1448 51.1557 21.1448C52.1829 21.1448 53.2435 20.6592 53.9868 18.9858C54.0739 19.1674 54.169 19.3408 54.2728 19.5052C55.8385 21.986 58.876 21.4521 60.4017 19.3455C60.4737 19.2467 60.5361 19.157 60.5907 19.0766L60.6355 20.3831C60.6355 20.3831 59.765 21.1816 59.2307 21.6714C56.8792 23.8289 55.0911 25.4657 54.9596 27.3718C54.7907 29.8023 56.7619 30.7056 58.2532 30.824C59.8368 30.9497 61.193 30.0748 62.0267 28.8505C62.7598 27.7728 63.2398 25.4535 63.2046 23.1627C63.1905 22.2454 63.1674 21.079 63.1493 19.8288C63.9758 18.869 64.907 17.6558 65.7644 16.2359C66.6988 14.6884 67.7002 12.6102 68.213 10.9929C68.213 10.9929 69.0831 11.0004 70.0116 10.9396C70.3086 10.9203 70.3939 10.9809 70.339 11.1986C70.2727 11.4617 69.1659 15.7307 70.176 18.5746C70.8674 20.5214 72.4261 21.1478 73.3502 21.1478C74.4319 21.1478 75.4667 20.3309 76.0213 19.1178C76.0881 19.253 76.158 19.3839 76.2342 19.5047C77.8 21.9855 80.8268 21.4483 82.3632 19.345C82.71 18.8704 82.9067 18.4601 82.9067 18.4601C83.2364 20.5188 84.8374 21.1547 85.7543 21.1547C86.7095 21.1547 87.616 20.7631 88.3515 19.0229C88.3823 19.7891 88.4306 20.4157 88.5071 20.6132C88.5536 20.734 88.8251 20.8856 89.0225 20.9589C89.8963 21.2829 90.7875 21.1297 91.1172 21.063C91.3456 21.0168 91.5237 20.8336 91.5481 20.3604C91.6121 19.118 91.5728 17.0305 91.9494 15.4792C92.5817 12.8756 93.1714 11.8657 93.4512 11.3657C93.6078 11.0855 93.7845 11.0393 93.7909 11.3358C93.8041 11.9357 93.8339 13.6973 94.0788 16.0642C94.2587 17.8049 94.499 18.8338 94.6837 19.1594C95.2107 20.0906 95.8616 20.1347 96.3916 20.1347C96.7288 20.1347 97.4339 20.0415 97.3708 19.4489C97.34 19.1601 97.3939 17.375 98.0173 14.81C98.4243 13.1349 99.1029 11.6214 99.3477 11.0681C99.438 10.8641 99.4799 11.0249 99.4785 11.0563C99.4269 12.2098 99.3112 15.983 99.7812 18.0466C100.418 20.8421 102.261 21.1549 102.903 21.1549C104.274 21.1549 105.395 20.1121 105.773 17.3681C105.864 16.7078 105.729 16.1979 105.326 16.1979" fill="#262626"/>
</svg>
