<svg width="25" height="25" viewBox="0 0 25 25" fill="none" xmlns="http://www.w3.org/2000/svg">
<path d="M14 12.4369C14 11.6085 13.3284 10.9369 12.5 10.9369C11.6716 10.9369 11 11.6085 11 12.4369C11 13.2653 11.6716 13.9369 12.5 13.9369C13.3284 13.9369 14 13.2653 14 12.4369Z" fill="black"/>
<path d="M14 18.4369C14 17.6085 13.3284 16.9369 12.5 16.9369C11.6716 16.9369 11 17.6085 11 18.4369C11 19.2653 11.6716 19.9369 12.5 19.9369C13.3284 19.9369 14 19.2653 14 18.4369Z" fill="black"/>
<path d="M14 6.43689C14 5.60846 13.3284 4.93689 12.5 4.93689C11.6716 4.93689 11 5.60846 11 6.43689C11 7.26532 11.6716 7.93689 12.5 7.93689C13.3284 7.93689 14 7.26532 14 6.43689Z" fill="black"/>
</svg>
